<svg id="visual" viewBox="0 0 900 600" width="900" height="600" xmlns="http://www.w3.org/2000/svg" xmlns:xlink="http://www.w3.org/1999/xlink" version="1.1"><path d="M0 37L82 79L164 103L245 61L327 55L409 49L491 79L573 61L655 79L736 37L818 61L900 49L900 0L818 0L736 0L655 0L573 0L491 0L409 0L327 0L245 0L164 0L82 0L0 0Z" fill="#00cc8e"></path><path d="M0 127L82 163L164 217L245 151L327 151L409 115L491 145L573 103L655 169L736 121L818 139L900 91L900 47L818 59L736 35L655 77L573 59L491 77L409 47L327 53L245 59L164 101L82 77L0 35Z" fill="#00b98a"></path><path d="M0 181L82 313L164 313L245 301L327 247L409 247L491 289L573 181L655 283L736 235L818 235L900 175L900 89L818 137L736 119L655 167L573 101L491 143L409 113L327 149L245 149L164 215L82 161L0 125Z" fill="#00a784"></path><path d="M0 349L82 451L164 463L245 505L327 439L409 403L491 427L573 409L655 403L736 481L818 439L900 475L900 173L818 233L736 233L655 281L573 179L491 287L409 245L327 245L245 299L164 311L82 311L0 179Z" fill="#00957c"></path><path d="M0 601L82 601L164 601L245 601L327 601L409 601L491 601L573 601L655 601L736 601L818 601L900 601L900 473L818 437L736 479L655 401L573 407L491 425L409 401L327 437L245 503L164 461L82 449L0 347Z" fill="#038373"></path></svg>